<?xml version="1.0" standalone="no"?>
<!DOCTYPE svg PUBLIC "-//W3C//DTD SVG 20010904//EN"
 "http://www.w3.org/TR/2001/REC-SVG-20010904/DTD/svg10.dtd">
<svg version="1.0" xmlns="http://www.w3.org/2000/svg"
 width="700.000000pt" height="700.000000pt" viewBox="0 0 700.000000 700.000000"
 preserveAspectRatio="xMidYMid meet">
<metadata>
Created by potrace 1.11, written by Peter Selinger 2001-2013
</metadata>
<g transform="translate(0.000000,700.000000) scale(0.100000,-0.100000)"
fill="#000000" stroke="none">
<path d="M1140 5228 c-255 -65 -443 -243 -523 -493 -61 -188 -35 -407 69 -586
41 -71 180 -215 234 -243 173 -91 271 -117 409 -111 48 2 104 7 125 10 34 6
38 5 32 -10 -14 -38 -21 -149 -20 -325 1 -159 5 -202 28 -310 33 -156 28 -138
66 -245 84 -236 221 -454 399 -634 130 -132 166 -162 301 -251 212 -139 485
-240 725 -268 124 -14 415 -8 535 12 61 10 259 64 275 75 6 4 28 13 50 20 22
8 84 35 138 62 466 232 816 676 931 1179 14 63 20 94 36 209 8 63 6 283 -5
422 -9 115 0 151 57 228 30 39 55 60 97 80 l56 26 630 5 630 5 1 583 0 583
-1670 -4 c-919 -2 -1689 -7 -1711 -11 -192 -35 -389 -87 -410 -107 -5 -5 -16
-9 -25 -9 -25 0 -246 -113 -335 -171 -80 -52 -133 -92 -214 -162 l-44 -38 -42
85 c-78 159 -187 268 -346 346 -139 68 -329 87 -479 48z m249 -584 c60 -35 85
-131 51 -193 -21 -41 -78 -74 -125 -73 -86 1 -145 60 -145 145 0 111 122 178
219 121z m1948 -279 c351 -55 636 -313 719 -650 4 -16 8 -32 9 -35 8 -30 18
-150 16 -209 -8 -340 -230 -655 -551 -784 -371 -148 -803 -20 -1035 308 -153
216 -200 494 -126 748 112 384 471 645 866 630 38 -1 84 -5 102 -8z"/>
<path d="M3109 4073 c-136 -27 -219 -72 -314 -167 -141 -143 -199 -347 -154
-541 13 -55 13 -55 55 -138 92 -185 301 -310 513 -309 367 2 637 330 571 693
-43 234 -256 439 -485 465 -91 10 -126 10 -186 -3z"/>
</g>
</svg>
