<?xml version="1.0" standalone="no"?>
<!DOCTYPE svg PUBLIC "-//W3C//DTD SVG 20010904//EN"
 "http://www.w3.org/TR/2001/REC-SVG-20010904/DTD/svg10.dtd">
<svg version="1.0" xmlns="http://www.w3.org/2000/svg"
 width="700.000000pt" height="700.000000pt" viewBox="0 0 700.000000 700.000000"
 preserveAspectRatio="xMidYMid meet">
<metadata>
Created by potrace 1.11, written by Peter Selinger 2001-2013
</metadata>
<g transform="translate(0.000000,700.000000) scale(0.100000,-0.100000)"
fill="#000000" stroke="none">
<path d="M0 3500 l0 -3500 3500 0 3500 0 0 3500 0 3500 -3500 0 -3500 0 0
-3500z m1515 1720 c201 -63 360 -199 453 -390 l39 -79 75 63 c284 237 639 387
1009 426 58 6 720 10 1712 10 l1617 0 0 -585 0 -585 -620 0 c-593 0 -622 -1
-672 -20 -76 -28 -122 -71 -159 -145 l-32 -65 9 -117 c14 -182 9 -404 -11
-518 -127 -730 -689 -1302 -1415 -1440 -121 -23 -363 -31 -501 -16 -803 88
-1437 711 -1544 1520 -18 131 -18 328 -1 441 7 47 12 86 11 88 -1 1 -36 -3
-76 -9 -457 -71 -881 346 -819 807 23 176 96 321 225 442 150 143 316 206 525
197 69 -2 129 -11 175 -25z"/>
<path d="M1280 4663 c-64 -12 -110 -73 -110 -145 0 -85 58 -138 149 -138 122
0 182 142 100 235 -25 28 -88 59 -109 54 -3 -1 -16 -4 -30 -6z"/>
<path d="M3041 4359 c-334 -65 -601 -322 -683 -656 -29 -121 -29 -285 0 -406
42 -172 122 -307 255 -434 94 -89 203 -154 327 -195 80 -26 116 -31 224 -36
150 -6 235 7 351 51 127 48 211 103 310 202 171 171 255 374 255 615 0 228
-79 430 -234 596 -119 129 -285 223 -456 259 -77 16 -276 19 -349 4z m308
-294 c191 -45 349 -195 417 -395 26 -77 26 -263 0 -340 -53 -157 -161 -283
-299 -349 -97 -46 -161 -61 -264 -61 -249 0 -472 164 -548 403 -52 162 -26
355 65 494 78 118 205 211 341 247 71 19 208 20 288 1z"/>
</g>
</svg>
